<svg width="680" height="84" viewBox="0 0 680 84" fill="none" xmlns="http://www.w3.org/2000/svg">
<path d="M0 3.11499H13.391V35.28H48.214V3.11499H61.605V80.97H48.214V46.404H13.391V80.97H0V3.11499Z" fill="#1E272E"/>
<path d="M71.1841 3.11499H126.268V14.893H84.5881V35.28H123.168V46.404H84.5881V69.192H127.022V80.97H71.1841V3.11499Z" fill="#1E272E"/>
<path d="M135.316 3.11499H149.461L184.396 60.469H184.606V3.11499H197.354V80.97H183.21L148.386 23.73H148.065V80.97H135.316V3.11499Z" fill="#1E272E"/>
<path d="M206.527 3.11499H220.672L255.607 60.469H255.817V3.11499H268.565V80.97H254.421L219.597 23.73H219.276V80.97H206.527V3.11499Z" fill="#1E272E"/>
<path d="M359.34 3.11499H414.424V14.893H372.744V35.28H411.324V46.404H372.744V69.192H415.178V80.97H359.354V3.11499H359.34Z" fill="#1E272E"/>
<path d="M319.25 39.841V51.618H338.477C337.876 57.017 335.195 61.961 331.02 65.356C326.873 69.079 321.526 71.124 316.01 71.124C315.982 71.124 315.954 71.124 315.926 71.124C309.364 71.124 303.178 68.525 297.537 63.382C291.561 58.026 288.252 50.254 288.475 42.156C288.266 34.385 291.212 26.884 296.615 21.386C301.88 15.831 309.196 12.776 316.778 12.961C325.659 12.961 333.296 17.223 339.496 25.605L339.859 26.088L348.935 17.237L348.628 16.853C344.509 11.767 339.426 7.57601 333.701 4.50801C318.133 -2.69499 299.827 0.601018 287.637 12.79C279.86 20.49 275.545 31.117 275.741 42.156C275.601 53.053 279.818 63.538 287.428 71.21C294.758 79.009 304.923 83.385 315.535 83.271C315.843 83.271 316.15 83.271 316.443 83.271C326.748 83.286 336.55 78.725 343.28 70.783C346.366 67.303 348.698 63.225 350.136 58.779C351.588 53.636 352.286 48.322 352.202 42.966V39.826H319.264L319.25 39.841Z" fill="#1E272E"/>
<path d="M482.588 13.7C490.016 13.543 497.165 16.584 502.276 22.082C507.694 27.267 510.696 34.556 510.528 42.128C510.724 49.629 507.735 56.861 502.318 61.975C491.538 72.744 474.378 73.128 463.151 62.842C457.064 57.429 454.229 50.709 454.229 41.673C454.103 34.229 457.119 27.083 462.537 22.053C467.787 16.541 475.048 13.515 482.588 13.714V13.7ZM482.588 0.713988C471.711 0.543988 461.239 4.905 453.601 12.776C445.767 20.249 441.369 30.72 441.495 41.659C441.495 54.417 445.921 64.731 454.774 72.602C471.013 87.335 495.685 86.752 511.24 71.267C519.101 63.708 523.486 53.138 523.304 42.128C523.458 31.103 519.101 20.519 511.296 12.89C503.784 4.97601 493.395 0.571988 482.588 0.713988Z" fill="#1E272E"/>
<path d="M680 41.417C680 29.029 676.78 19.254 670.37 12.094C663.97 4.934 655.27 1.35401 644.28 1.35401C634.06 1.08401 624.23 5.28903 617.26 12.89C610.33 20.434 606.87 30.123 606.87 41.972C606.87 54.303 610.36 64.277 617.34 71.877C624.32 79.478 633.47 83.271 644.78 83.271C651.62 83.414 658.38 81.709 664.38 78.356C664.65 78.2 664.93 78.072 665.19 77.915C671.25 74.151 676.21 68.78 679.52 62.401L669.06 55.411C666.48 59.887 662.96 63.737 658.76 66.663C654.6 69.05 649.86 70.229 645.09 70.073C637.28 70.073 631.53 67.757 626.96 62.785C624.84 60.455 623.17 57.741 622.06 54.772C621.21 51.703 620.79 48.535 620.82 45.353V44.202H680V41.417ZM665.04 31.217H621.39C622.47 27.608 624.35 24.284 626.88 21.528C631.39 16.612 636.92 14.325 644.26 14.325C651.61 14.325 656.97 16.385 660.94 20.831C663.2 23.858 664.62 27.438 665.04 31.217Z" fill="#1E272E"/>
<path d="M590.22 9.74999C585.38 5.04699 578.66 2.68899 570.04 2.68899C564.74 2.57499 559.47 3.78298 554.73 6.22698C550.73 8.39998 547.27 11.483 544.62 15.22L545.34 2.68899H531.199V80.53H543.95V32.183C544.06 30.961 544.27 29.753 544.56 28.56C545.19 26.102 546.32 23.815 547.87 21.826C549.9 19.24 552.52 17.209 555.49 15.873C558.71 14.452 562.17 13.728 565.66 13.785C572.15 13.785 576.94 15.632 580.06 19.326C583.17 23.019 584.72 28.674 584.72 36.289V80.544H597.48V29.37C597.48 20.988 595.07 14.452 590.22 9.74999Z" fill="#1E272E"/>
</svg>
